<?xml version="1.0" encoding="UTF-8"?><svg id="Layer_1" xmlns="http://www.w3.org/2000/svg" width="651" height="713" viewBox="0 0 651 713"><defs><style>.cls-1,.cls-2,.cls-3,.cls-4,.cls-5,.cls-6{stroke-miterlimit:10;}.cls-1,.cls-5{fill:none;}.cls-1,.cls-6{stroke:#603813;}.cls-7{fill:#ff7bac;}.cls-7,.cls-8,.cls-9,.cls-10,.cls-11,.cls-12,.cls-13,.cls-14,.cls-15{stroke-width:0px;}.cls-2,.cls-5{stroke:#997a4e;}.cls-2,.cls-13{fill:#997a4e;}.cls-8{fill:#a67c52;}.cls-3{stroke:#d7a300;}.cls-3,.cls-12{fill:#d7a300;}.cls-9{fill:#000;}.cls-10{fill:#754c24;}.cls-11{fill:#8c6239;}.cls-4{stroke:#8c6239;}.cls-4,.cls-14{fill:#bf8360;}.cls-15,.cls-6{fill:#603813;}</style></defs><path class="cls-11" d="M308.87,217.28c1.96,4.24,5.87,7.26,9.83,9.79,18.27,11.71,41.56,16.74,62.36,10.4,20.8-6.34,37.98-25.18,39.17-46.67-3.67,7.06-12.8,8.86-20.61,10.73-16.22,3.89-31.34,11.42-47.5,15.53-16.16,4.11-34.63,4.29-48.11-5.43,4.17,3.63,8.34,7.25,12.51,10.88"/><path class="cls-14" d="M307.58,218.04c2.2,4.59,6.34,7.77,10.54,10.44s9.03,5.17,13.84,7.14c9.47,3.89,19.71,6.09,29.96,6.11,9.89.02,19.79-2.03,28.66-6.46,8-4,15.09-9.83,20.55-16.92,6.12-7.95,10.02-17.49,10.62-27.54.09-1.49-2.11-2.04-2.8-.76-3.23,6.02-10.51,7.83-16.65,9.31-8.4,2.03-16.54,4.64-24.66,7.61-15.72,5.76-31.73,12.02-48.78,11.18-8.59-.42-17.03-2.78-24.08-7.81-1.38-.98-3.1,1.24-1.82,2.36,4.17,3.63,8.34,7.25,12.51,10.88,1.45,1.26,3.58-.85,2.12-2.12-4.17-3.63-8.34-7.25-12.51-10.88l-1.82,2.36c13.28,9.48,30.78,9.68,46.16,6.32,8.96-1.96,17.59-5.18,26.18-8.34s17.19-6.21,26.11-8.33c7.33-1.74,15.96-3.82,19.82-11.02l-2.8-.76c-1.01,17.03-12.28,32.03-26.8,40.33-16.73,9.57-37.24,9.42-55.09,3.15-5.19-1.82-10.19-4.18-14.92-6.99s-9.39-5.82-11.76-10.78c-.83-1.74-3.42-.22-2.59,1.51h0Z"/><path class="cls-8" d="M302.07,64.77c-21.04,6.65-28.39,32.05-30.8,53.76-2.65,23.87-3.23,48.11.63,71.81,1,6.14,2.42,12.5,6.41,17.32,3.99,4.81,11.27,7.5,16.79,4.51,2.74,14.38,4.52,28.93,5.33,43.54.19,3.52.26,7.32-1.76,10.23-2.22,3.2-6.32,4.43-10.11,5.45-21.3,5.72-42.6,11.45-63.9,17.17,10.39-9.07,28.15-6.35,37.5-16.46,10-10.82,3.8-27.87-1.62-41.52-10.05-25.29-15.62-52.76-12.49-79.75s15.54-53.47,36.77-70.72"/><path class="cls-10" d="M190.48,316.13c15.55-10.25,31.11-20.5,46.66-30.75,12.1-7.97,24.91-16.2,39.41-17.29,7.05-.53,15.12.34,20.2-4.52,3.91-3.74,4.57-9.61,4.99-14.97,1.34-16.93,1.59-36.61-11.48-47.63-4.83-4.07-11.03-6.43-15.45-10.94-12.76-13.03-4.37-34.17-.36-51.86,6.17-27.22,1.74-60.59,23.68-78.13-33.21,16.44-49.46,55.34-51.13,92.02-1.67,36.67,8.29,72.75,13.88,109.04.35,2.29.66,4.77-.46,6.81-1.09,2-3.29,3.1-5.35,4.11-25.11,12.27-48.64,27.68-69.85,45.75,15.48-15.09,32.95-28.19,51.83-38.85,6.05-3.42,12.41-6.72,16.8-12.07,4.39-5.35,6.26-13.43,2.36-19.13,4.42,4.51,8.85,9.03,13.27,13.54-.24-4.4-2.27-8.69-5.53-11.7-.13,6.69-.26,13.39-.39,20.08-1.82-35.75-3.63-71.5-5.45-107.24-1.54-30.24-.9-65.47,23.24-84.1-4.08,15.36-8.16,30.73-12.24,46.09,1.78-2.53,3.56-5.07,5.34-7.6-6.26,17.05-12.62,34.68-11.6,52.79,1.02,18.11,11.36,36.99,28.87,42.42-5.75-2.55-10.5-7.22-13.12-12.89,15.82,11.67,24.72,31.9,22.55,51.29-.48,4.3-1.58,8.77-4.58,11.92-2.25,2.37-5.35,3.74-8.39,4.97-11.39,4.61-23.27,8.04-35.39,10.22,24.31-12.79,40.24-39.79,39.5-67.01-.07-2.68-.41-5.62-2.38-7.47-4.71-4.43-16.03-.66-16.74-7.05.67,7.14,5.23,13.8,11.69,17.06-18.72-31.6-22.25-71.58-9.35-105.91-7.84-.05-15.44,5.18-18.1,12.47"/><path class="cls-13" d="M338.08,25.87c-7.52,9.64-4.27,27.74,3.94,38.93,14.73,20.07,39.92,11.06,59.08,27.25,11.07,9.35,21.17,27.91,17.72,68.13-7.22,24.01-14.44,48.01-21.66,72.02,59.51-44.5,70.58-63.92,66.39-72.82-2.69-5.72-12.98-9.8-17.16-6.99-5.24,3.52,3.02,15.22-1.7,25.86-7,15.76-32.89,7.56-45.56,22.8-9.99,12.01-3.58,31.22,7.88,66.18,9.57,29.22,15.85,48.36,33.48,66.18,14.98,15.14,25.16,16.19,51.2,31.14,17.8,10.23,42.35,26.58,68.92,52.56-16.56-74.91-30.61-109.01-40.84-126.09-3.34-5.57-9.5-16.54-12.47-32.3-2.59-13.71,1.36-27.68,2.66-41.57,1.3-13.89-1.02-29.79-12.39-38.04-4.48-3.26-10-5-14.22-8.59-6.2-5.29-8.58-13.6-10.96-21.34-10.76-34.91-67.26-87.19-55.55-103.56,5.59-7.82,23.16-1.68,23.66-4.18,1.11-5.51-83.36-39.97-102.4-15.57Z"/><path class="cls-13" d="M403.07,27.82c17.76-10.78,73.17,38.59,106.89,83.81,38.34,51.41,41.26,91.27,72.91,223.54,9,37.61,22.51,91.97,40.75,157.86,9.93,45.76,1.84,63.99-7.88,72.02-8.53,7.05-15.32,3.76-25.6,11.68-23.59,18.16-15.22,56.54-23.63,58.39-5.03,1.11-14.54-11.21-33.48-60.34-12.08-33.95-38.98-116.42-13.78-132.36,6.48-4.1,19.24-5.6,46.52,11.02-17.29,7.59-25.99,5.95-30.76,2.6-17.26-12.1-4.24-61.43-7.27-123.7-.2-4.13-2.07-8.8-2.78-15.26-2.02-18.28-28.92-23.07-45.08-40.12-21.25-22.42-16.65-58.34-14.77-72.99,4.93-38.51,27.79-62.64,35.45-70.07,7.48,30.86,4.75,41.74-.57,44.79-20.89,12-112.76-79.95-102.81-139.2,1.06-6.29,2.86-9.83,5.91-11.68Z"/><path class="cls-10" d="M268.19,103.17c-3.03,3.88-6.07,7.76-9.1,11.64l2.36,1.82c5.85-10.79,11.7-21.58,17.55-32.37l-2.8-.76c-.51,14.29-5.22,28.27-13.31,40.05-2.29,3.34-4.86,6.47-7.66,9.39l2.51.66c-.88-5.24-1.75-10.48-2.63-15.72-.23-1.4-2.08-1.29-2.74-.36-8.7,12.17-7.29,27.71-4.05,41.5,1.75,7.44,4.11,14.71,6.17,22.06,2.37,8.47,4.31,17.06,5.79,25.73s2.52,17.46,3.09,26.26c.29,4.39.46,8.78.52,13.18.03,2.24.03,4.48,0,6.71-.03,2.09-.19,4.21.1,6.29,1.06,7.62,9.95,9.67,16.36,8.03s12.03-6.78,15.07-12.7c3.7-7.2,3.99-15.64,3.48-23.55-.23-3.62-.3-7.53-1.31-11.03-.74-2.58-2.13-5.54-4.65-6.8-1.26-.63-2.65-.7-3.99-.3-.67.2-1.06.77-1.1,1.45-.68,11.33-1.54,23.32-6.68,33.66-2.53,5.1-6.14,9.58-10.83,12.85s-10.23,5.49-15.68,7.42c-6.41,2.27-12.93,4.32-18.95,7.54-1.48.79-.47,3.28,1.16,2.74,12.01-3.97,24.02-7.94,36.03-11.91,3-.99,6.01-1.99,9.01-2.98,2.54-.84,5.25-1.54,7.61-2.83,5.11-2.79,5.12-8.29,5.49-13.44.5-7.07,1-14.15,1.5-21.22.12-1.63-2.01-1.84-2.8-.76-7.91,10.89-12.78,23.76-14.17,37.15h3c-.02-6,2.75-11.61,7.4-15.37l-2.12-2.12c-1.7,2.05-2.91,4.36-3.53,6.96-.44,1.88,2.36,2.66,2.89.8,1.17-4.07,2.34-8.15,3.52-12.22s2.62-7.91,3.67-11.94c2.04-7.81,2.86-15.93,2.45-23.99l-2.95.4c4.32,17.85,8.92,38.08-1.47,54.78-2.05,3.29-4.64,6.31-7.76,8.64-3.52,2.64-7.56,4.25-11.85,5.17-4.7,1.01-9.5,1.25-14.27,1.74s-9.5,1.24-14.17,2.28c-10.67,2.39-20.98,6.28-30.6,11.48l1.82,2.36c10.72-9.92,22.99-18.11,36.22-24.29,6.66-3.11,13.57-5.69,20.64-7.72,1.75-.5,3.51-.97,5.27-1.41,1.54-.38,3.13-.86,4.72-1.01,2.39-.23,5.21.15,7.25,1.5.7.47,1.39,1.13,1.27,2.04-.01.09-.06.18-.07.26-.03.44.16-.03-.12.05-.4.13-.8.38-1.16.58-.76.42-1.48.9-2.17,1.43-3,2.28-5.2,5.34-6.45,8.89-.34.97.54,1.85,1.45,1.9,8.2.42,14.43-6.55,16.56-13.87,1.29-4.45,1.44-9.15,1.42-13.75-.02-5.02-.12-10.04-.29-15.05-.19-5.8-.47-11.6-.84-17.39-.12-1.92-3.12-1.93-3,0,.6,9.43.97,18.88,1.09,28.33.1,7.87.71,17.33-4.71,23.76-2.57,3.05-6.15,5.17-10.23,4.97l1.45,1.9c1.14-3.25,3.38-6.09,6.28-7.95.74-.47,1.51-.84,2.29-1.23s1.08-.95,1.32-1.77c.34-1.16.2-2.45-.4-3.5-1.29-2.28-4.14-3.38-6.57-3.84-3.29-.62-6.28-.03-9.49.75-15.2,3.7-29.81,9.91-43.03,18.27-7.42,4.69-14.4,10.06-20.84,16.02-1.28,1.19.35,3.15,1.82,2.36,8.8-4.76,18.18-8.36,27.91-10.72,4.9-1.19,9.88-2.06,14.9-2.59s9.81-.77,14.64-1.71c4.46-.87,8.8-2.43,12.56-5.02,3.29-2.27,6.08-5.13,8.4-8.38,4.86-6.81,7.36-15.1,7.94-23.39.84-12.07-2.04-24.02-4.86-35.67-.39-1.62-3.03-1.31-2.95.4.4,7.96-.4,15.93-2.47,23.64-1.04,3.88-2.44,7.64-3.55,11.5-1.17,4.07-2.34,8.15-3.52,12.22l2.89.8c.49-2.08,1.38-3.99,2.75-5.64,1.24-1.5-.62-3.33-2.12-2.12-5.24,4.23-8.31,10.77-8.28,17.49,0,1.97,2.8,1.88,3,0,1.34-12.86,6.17-25.19,13.76-35.63l-2.8-.76c-.42,5.92-.84,11.85-1.26,17.77-.2,2.79-.28,5.61-.63,8.38-.3,2.4-1.13,4.46-3.29,5.73s-4.82,1.92-7.23,2.71c-2.84.94-5.69,1.88-8.53,2.82-5.69,1.88-11.38,3.76-17.07,5.64-6.48,2.14-12.96,4.29-19.44,6.43l1.16,2.74c10.89-5.83,23.65-7.6,34-14.53,10.13-6.79,15.19-17.86,17.43-29.52,1.27-6.6,1.79-13.32,2.19-20.02l-1.1,1.45c2.38-.71,3.82,1.88,4.55,3.76,1.17,3.04,1.23,6.44,1.48,9.65.59,7.48.73,15.49-2.3,22.52-2.43,5.63-7.26,10.67-13.23,12.46-2.9.87-6.14.95-8.98-.21-1.45-.59-2.81-1.54-3.6-2.92-.9-1.59-.85-3.51-.81-5.28.3-16.29-.79-32.53-3.47-48.6-1.34-8.05-3.07-16.03-5.17-23.91-1.87-6.99-4.11-13.87-5.95-20.87-3.28-12.49-6.05-26.99.07-39.08.76-1.5,1.65-2.93,2.63-4.3l-2.74-.36c.88,5.24,1.75,10.48,2.63,15.72.19,1.13,1.78,1.42,2.51.66,10.3-10.74,17.47-24.41,20.39-39,.83-4.14,1.31-8.34,1.46-12.56.05-1.48-2.09-2.05-2.8-.76-5.85,10.79-11.7,21.58-17.55,32.37-.77,1.42,1.26,3.21,2.36,1.82,3.03-3.88,6.07-7.76,9.1-11.64,1.18-1.5-.93-3.64-2.12-2.12h0Z"/><path class="cls-11" d="M407.01,36.5c12.34,10.6,21.51,24.16,29.18,38.39,8.22,15.25,15.23,31.21,22.37,46.98,3.93,8.68,7.77,17.41,11.37,26.23,2.91,7.12,5.41,14.65,9.86,21.01,2.03,2.9,4.44,5.5,7.38,7.51,3.26,2.23,7.06,3.24,10.63,4.85s6.34,4.06,8.01,7.75,2.24,7.55,2.92,11.37c3.35,18.84,4.67,38.04,3.97,57.17-.09,2.36-.2,4.71-.35,7.07-.1,1.66,2.71,2.08,2.95.4,1.95-13.93.36-28.19-4.76-41.31-.49-1.26-2.53-1.58-2.89,0-2.92,12.85-2.12,26.4,2.38,38.79.65,1.8,3.55,1.02,2.89-.8-4.32-11.9-5.18-24.85-2.38-37.2h-2.89c4.92,12.58,6.64,26.32,4.76,39.71l2.95.4c1.18-19.22.33-38.52-2.51-57.56-.66-4.44-1.34-8.92-2.37-13.29-.88-3.74-2.21-7.44-4.69-10.43s-6.19-4.63-9.82-6.02c-3.59-1.38-6.97-2.86-9.81-5.52-5.36-5.02-8.28-12.1-10.96-18.78-3.52-8.8-7.2-17.52-11.05-26.18s-7.92-17.45-11.95-26.15c-3.5-7.56-7-15.12-10.8-22.53-7.39-14.4-16.03-28.43-27.69-39.79-1.48-1.44-3.01-2.84-4.58-4.18-1.46-1.25-3.59.86-2.12,2.12h0Z"/><path class="cls-11" d="M516.12,325.88c3.51,3.81,7.03,7.62,10.54,11.43.78.85,2.2.38,2.51-.66,2.54-8.75-6.39-17.71-15.11-15.82-1.03.22-1.54,1.81-.66,2.51,4.51,3.59,9.03,7.18,13.54,10.78,1.48,1.17,3.59-.82,2.12-2.12-6.71-5.96-12.08-13.36-15.5-21.67-.73-1.76-3.63-.99-2.89.8,3.62,8.8,9.15,16.67,16.27,23l2.12-2.12c-4.51-3.59-9.03-7.18-13.54-10.78l-.66,2.51c6.55-1.43,13.3,5.66,11.42,12.12l2.51-.66c-3.51-3.81-7.03-7.62-10.54-11.43-1.31-1.42-3.43.7-2.12,2.12h0Z"/><path class="cls-11" d="M502.96,176.48c-13.73-9.48-24.26-23.39-29.58-39.21l-2.51,1.46c12.01,14.44,24.02,28.89,36.03,43.33,1.25,1.5,3.29-.63,2.12-2.12-11.77-15.05-23.55-30.1-35.32-45.15-3.38-4.32-6.76-8.64-10.13-12.96-1.19-1.52-3.3.62-2.12,2.12,11.77,15.05,23.55,30.1,35.32,45.15,3.38,4.32,6.76,8.64,10.13,12.96l2.12-2.12c-12.01-14.44-24.02-28.89-36.03-43.33-.96-1.15-2.97.08-2.51,1.46,4.31,12.84,11.86,24.51,21.81,33.71,2.87,2.65,5.93,5.08,9.14,7.3,1.59,1.1,3.09-1.5,1.51-2.59h0Z"/><path class="cls-8" d="M501.52,235.05c3.6,20.92,7.21,41.84,10.81,62.76.13.73.97,1.17,1.65,1.07.8-.11,1.21-.72,1.3-1.47,2.7-21.65-2-43.18-4.19-64.64-.62-6.08-1.04-12.19-1.05-18.31l-2.95.4c4.24,13.06,6.25,26.67,7.54,40.31s2.22,28.27,3.27,42.41c.61,8.14,1.21,16.28,1.82,24.43.14,1.91,3.14,1.93,3,0-1.09-14.62-2.18-29.24-3.26-43.87-1.03-13.83-1.89-27.7-4.11-41.4-1.24-7.67-2.95-15.27-5.35-22.67-.51-1.57-2.95-1.35-2.95.4.04,21.75,5.32,43.05,6,64.75.19,6.08,0,12.16-.76,18.19l2.95-.4c-3.6-20.92-7.21-41.84-10.81-62.76-.33-1.9-3.22-1.09-2.89.8h0Z"/><path class="cls-11" d="M247.64,159.65l-1.56-21.39c-.14-1.91-3.14-1.93-3,0l1.56,21.39c.14,1.91,3.14,1.93,3,0h0Z"/><path class="cls-2" d="M551.74,322.71c.16,2.55.23,9.13-3.94,15.57-5.09,7.86-15.46,13.96-23.63,11.68-11.37-3.17-9.67-20.12-23.63-25.3-7.39-2.74-11.18,1.17-15.75-1.95-9.97-6.79-7.83-27.21-3.94-44.77.3,9.97.23,26.43-3.94,27.25-1.42.28-4.78-.96-11.82-17.52,1.41-17.74,1.69-37.33,0-58.39-6.03-75.39-34.32-134.15-57.11-171.29-1.28-6.12-3.95-12.96-9.85-17.52-7.14-5.52-15.81-5.23-15.75-5.84.14-1.38,43.54,2.58,43.83.62.12-.82-7.19-2.77-26.11-6.46,22.32,15.57,44.63,31.14,66.95,46.72,6.56,7.79,13.13,15.57,19.69,23.36,47.14,61.94,51.2,68.13,51.2,68.13,17.02,25.96,35.37,67.19,37.41,132.36,0,1.57-.19,9.82-23.63,23.36Z"/><path class="cls-13" d="M292.79,110.54c.71,2.21,8.92,1.43,13.78.97,4.39-.42,13.47-1.28,13.78-3.89.27-2.23-5.84-5.69-11.82-5.84-8.53-.21-16.53,6.34-15.75,8.76Z"/><path class="cls-13" d="M320.54,111.87c-4.52,2.15-9.44,3.52-14.43,3.96-4,.35-9.14.64-12.25-2.4-1.38-1.35-3.5.77-2.12,2.12,3.64,3.56,9.14,3.69,13.92,3.31,5.71-.44,11.23-1.95,16.4-4.41,1.74-.83.22-3.42-1.51-2.59h0Z"/><path class="cls-5" d="M292.21,112.39l4.36,1.58c4.77,1.73,9.63,3.48,14.71,3.74,5.07.26,10.49-1.18,13.86-4.93"/><path class="cls-6" d="M363.22,105.52c7.23,4.79,16.55,6.38,24.98,4.25,3.49-.88,6.97-2.48,9.09-5.36"/><path class="cls-1" d="M291.41,110.3c10.42,3.83,22.06,5.97,32.6,2.5"/><path class="cls-1" d="M364.11,108.46c5.43,1.19,10.93,2.38,16.49,2.28,5.56-.1,11.29-1.63,15.44-5.3"/><path class="cls-1" d="M290.3,113.99c5.55,1.29,11.15,2.57,16.85,2.74,5.7.17,11.57-.84,16.4-3.84"/><path class="cls-3" d="M236.78,712.73c-39-3.33-78-6.67-117-10h0c3.87-44.47,6.89-89.51,3-90-.14-.02-.21.03-.32,0-2.32-.61,2.58-31.79,29.54-149.88.1-2.72,1.48-27.87,23.63-42.82,19.29-13.02,39.94-8.57,43.32-7.79,159.07-48.25,203.35-53.16,206.76-44.77,1.15,2.82-2.64,6.38-39.38,50.61-5.92,7.13-11.78,14.3-17.72,21.41-32.51,38.9-58.13,96.2-76.8,124.57-14.89,22.63-34.41,57.62-49.23,107.06-1.93,13.87-3.87,27.73-5.8,41.6h0Z"/><path class="cls-13" d="M338.08,25.87c-10.37-8.54-56.95,18.66-85.5,57.09,0,0-26.55,36.26-45.32,102.1-.95,3.34-1.87,6.68-2.79,10.03-1.21,4.4-2.41,8.79-3.62,13.19-6.9,25.14-13.8,50.29-20.7,75.43-.96,3.52-1.93,7.06-2.2,10.69-.37,5.07.28,8.87.4,9.63.87,5.72-.96,23.09-9.62,66.37,14.47-6.95,38.82-20.9,61.04-46.72,21.64-25.14,31.67-50.38,36.4-65.45,15.26,27.77,25.62,33.28,32.53,32.36,20.55-2.73,43.09-66.6,23.63-114.84-10.13-25.12-25.11-32.2-23.63-52.56,1.29-17.82,15.27-20.2,29.54-50.61,2.9-6.17,18.56-39.54,9.85-46.72Z"/><path class="cls-14" d="M428.67,154.34c-1.17,12.5-3.31,23.89-3.94,27.25-4.03,21.51-3.48,20.24-3.94,21.41-6.85,17.37-22.43,25.65-25.6,27.25-2.31,1.17-9.48,4.58-21.66,5.84-4.78.49-48.27,4.41-68.92-21.41-8.31-10.39-3.27-13.52-17.72-38.93-6.59-11.58-9.58-14.29-11.82-22.38-1.78-6.43-2.86-15.3,1.97-36.01,6.38-27.37,9.58-41.05,21.66-54.5,5.78-6.43,19.17-21.56,39.38-23.36,11.49-1.02,24.07,5.16,49.23,17.52,10.64,5.23,15.46,8.44,19.69,13.63,2.62,3.21,2.99,4.87,9.85,27.25,3.56,11.6,6.49,23.38,9.85,35.04.47,1.65,1.46,5.07,1.97,9.73.56,5.2.23,9.22,0,11.68Z"/><path class="cls-14" d="M460.17,164.07c.38-3.78-1.61-4.82-3.94-11.68-3.43-10.08-1.33-14.25-3.94-15.57-4.23-2.14-14.49,6.41-19.69,16.55-.97,1.88-9.01,17.97-1.97,24.33,5.11,4.62,15.26,1.47,20.68-1.95,1.63-1.03,8.22-5.18,8.86-11.68Z"/><path class="cls-14" d="M273.1,171.86c.28-3.45,1.6-9.5,3.94-9.73,2.33-.23,3.34,5.5,9.85,18.49,4.89,9.77,7.62,13.11,5.91,16.55-1.36,2.72-5.03,4.54-7.88,3.89-1.29-.29-3.15-1.26-7.88-13.63-4.06-10.62-4.1-13.59-3.94-15.57Z"/><path class="cls-14" d="M426.35,188.59c.68,29.86,1.35,59.72,2.03,89.59.12,5.43.29,11.05,2.74,15.91,3.65,7.25,11.51,11.27,18.87,14.82,11.43,5.51,22.93,11.05,35.09,14.73,8.43,2.55,17.23,4.23,25.04,8.27,15.6,8.05,25.08,24.32,31.15,40.65,7.82,21.05,11.37,43.64,10.38,66.04-17.81-20.83-37.64-42.89-64.62-48.59-11.3-2.39-23.01-1.65-34.54-.82-96.29,6.95-192.14,19.81-286.82,38.48,3.94-24.98-.97-51.22,6.73-75.33,7.03-22.03,24.19-39.97,44.35-51.65,20.16-11.68,43.21-17.64,66.29-21.31,8.13-1.29,17.15-2.78,22.22-9.18,3.72-4.7,4.42-11.02,4.63-16.98.43-12.31-.66-24.66-3.22-36.71,6.74,14.14,23.12,21.23,38.73,23.73,17.69,2.84,36.58,1.13,52.19-7.56,15.62-8.69,27.37-25.04,27.74-42.76"/><path class="cls-14" d="M424.85,188.59c.51,22.72,1.03,45.43,1.54,68.15l.38,16.85c.11,5.05,0,10.19.99,15.17,1.8,8.99,8.45,14.65,16.19,18.8,9.12,4.9,18.71,9.26,28.31,13.12,4.94,1.99,9.97,3.74,15.09,5.19s9.88,2.6,14.71,4.27c8.87,3.07,16.39,8.25,22.49,15.38s10.12,14.79,13.52,23c9.12,22.06,13.07,46.28,12.07,70.09l2.56-1.06c-14.38-16.8-29.75-34.41-50.2-43.88-11.27-5.22-23.27-6.98-35.63-6.73-13.88.28-27.79,1.73-41.61,2.89-27.95,2.34-55.86,5.18-83.71,8.52-27.73,3.32-55.4,7.13-83,11.43-27.71,4.32-55.34,9.13-82.88,14.43-3.47.67-6.94,1.35-10.41,2.03l1.85,1.85c3.19-20.64.45-41.69,3.7-62.31,2.86-18.17,11.55-34.18,24.61-47.05s30.78-22.59,48.82-28.65c9.66-3.25,19.59-5.67,29.6-7.57,8.55-1.62,17.98-2.03,25.87-6.02,4.17-2.1,7.45-5.43,9.28-9.74,1.95-4.6,2.29-9.69,2.43-14.63.33-12.08-.82-24.18-3.31-36l-2.74,1.16c8.92,18.3,31.53,24.53,50.28,25.58,21.77,1.22,44.74-5.23,59.11-22.46,7.17-8.6,11.76-19.21,12.07-30.47.05-1.93-2.95-1.93-3,0-.55,19.69-14.81,36.43-32.32,44.1-9.88,4.34-20.78,6.08-31.53,5.97-9.81-.1-19.76-1.59-28.97-5.05s-18.46-9.76-23.06-19.19c-.78-1.6-3.07-.43-2.74,1.16,2.25,10.72,3.36,21.66,3.25,32.62-.09,9.06-.67,19.09-9.52,23.97-3.77,2.08-8.09,3.02-12.29,3.77-4.64.83-9.31,1.51-13.95,2.4-9.89,1.89-19.7,4.29-29.26,7.5-17.59,5.91-34.33,14.66-47.98,27.36-12.62,11.74-22.24,26.66-26.2,43.54-5.32,22.72-1.5,46.28-5.04,69.21-.18,1.16.64,2.08,1.85,1.85,27.14-5.35,54.38-10.22,81.69-14.62,27.43-4.41,54.95-8.34,82.52-11.78,27.46-3.42,54.98-6.37,82.54-8.82,13.71-1.22,27.42-2.33,41.15-3.31s26.41-1.47,39.08,2.56c21.44,6.83,37.77,23.79,52.18,40.28,1.8,2.06,3.59,4.14,5.37,6.22.9,1.05,2.51.15,2.56-1.06.89-21.35-2.21-42.84-9.21-63.03-5.64-16.27-14.13-32.88-28.95-42.56-8.53-5.57-18.53-7.6-28.17-10.42-10.42-3.04-20.34-7.46-30.12-12.12-7.86-3.74-17.58-7.3-22.8-14.68-2.95-4.17-3.68-9.21-3.91-14.2-.25-5.47-.27-10.95-.4-16.43-.58-25.52-1.16-51.05-1.73-76.57-.04-1.93-3.04-1.93-3,0h0Z"/><path class="cls-11" d="M424.73,189.38c1.37,1.42-19.83,38.49-57.11,44.77-32.78,5.52-61.75-15.51-61.04-17.52.67-1.9,27.72,14.32,61.04,7.79,36.18-7.1,55.85-36.34,57.11-35.04Z"/><path class="cls-11" d="M286.89,105.68c-.75-.72,4.68-11.76,15.75-15.57,9.81-3.38,22.58-.58,25.6,5.84.88,1.88,1.27,4.79,0,5.84-1.41,1.16-4.25-.46-7.88-1.95-4.86-1.99-11.44-3.87-15.75-3.89-10.29-.04-16.96,10.47-17.72,9.73Z"/><path class="cls-11" d="M401.1,92.05c.57-.78-7.65-11.11-20.68-13.63-8.16-1.58-21.37-.71-24.61,6.81-1.6,3.71-.89,9.3,1.97,10.71,5.03,2.47,11.19-10.75,23.63-11.68,11-.82,19.14,8.55,19.69,7.79Z"/><path class="cls-7" d="M377.47,169.91c-.36-2.21-4.96-1.62-9.85-5.84-4.06-3.51-2.8-5.58-5.91-7.79-6.21-4.41-16.72-.09-21.66,1.95-5.18,2.13-8.39,4.62-9.85,5.84-1.92,1.61-9.39,7.87-7.88,11.68.89,2.25,4.16,1.71,11.82,3.89,10.59,3.02,10.29,5.75,15.75,5.84,3.74.06,8.4-2.55,17.72-7.79,9.12-5.12,10.03-6.68,9.85-7.79Z"/><path class="cls-12" d="M307.34,269.58c3.45,15.16-1.28,30.84-6.1,45.63-10.72,32.88-22.11,65.55-34.15,97.98"/><path class="cls-12" d="M305.9,269.98c2.06,9.27,1.02,18.8-1.15,27.95s-5.45,18.49-8.48,27.63c-6.18,18.67-12.57,37.28-19.18,55.81-3.74,10.5-7.56,20.98-11.44,31.43-.67,1.81,2.23,2.59,2.89.8,6.96-18.75,13.71-37.58,20.23-56.49,3.23-9.37,6.41-18.77,9.54-28.18s6.38-18.61,8.81-28.11c2.64-10.32,4.01-21.11,1.67-31.62-.42-1.88-3.31-1.09-2.89.8h0Z"/><path class="cls-12" d="M305.02,275.08c20.88,15.37,41.75,30.74,62.35,46.49,20.48,15.66,40.65,31.72,60.27,48.45,10.21,8.7,20.56,17.48,32.63,23.51,1.72.86,3.24-1.73,1.51-2.59-10.84-5.41-20.28-13.06-29.47-20.87-9.68-8.22-19.42-16.38-29.31-24.35-20.09-16.19-40.63-31.82-61.31-47.24-11.69-8.71-23.42-17.35-35.16-25.99-1.56-1.15-3.05,1.46-1.51,2.59h0Z"/><path class="cls-12" d="M429.2,290.76c-6.89,16.98-15.48,33.27-25.53,48.6-10.07,15.36-21.62,29.75-34.45,42.9-7.24,7.42-14.88,14.45-22.88,21.05-1.49,1.23.64,3.34,2.12,2.12,14.4-11.87,27.62-25.14,39.45-39.57,11.7-14.29,22.07-29.67,30.84-45.92,4.97-9.2,9.41-18.68,13.34-28.37.73-1.79-2.18-2.57-2.89-.8h0Z"/><path class="cls-12" d="M432.99,292.96c3.31,14.09,10.14,27,17.41,39.41s15.24,24.68,20.87,38.02c3.1,7.34,5.45,15.07,6.44,22.99.23,1.89,3.24,1.91,3,0-1.79-14.4-7.69-27.7-14.67-40.28-7.09-12.77-15.23-24.95-21.68-38.07-3.6-7.31-6.6-14.92-8.47-22.86-.44-1.88-3.34-1.08-2.89.8h0Z"/><path class="cls-12" d="M546.21,695.46c.02-.08.04-.15.06-.23h0c-53.85,5.27-107.69,10.53-161.54,15.8-49.23.65-98.46,1.3-147.69,1.95,4.78-72.03,26.04-217.62,137.84-301.7,9.05-6.81,18.88-13.35,29.54-19.46,9.41-3.61,42.45-14.98,80.74-1.95,27.42,9.33,44.05,26.59,51.2,35.04,3.25,2.69,7.91,7.13,11.82,13.63,0,0,9.69,16.1,3.94,73.97-2.53,25.4-4.92,48.96-6.42,77.12-1.37,25.67-2.11,38.5-1.46,43.56,2.4,18.52,8.93,37.43,2.03,62.06-.03.1-.05.18-.06.23Z"/><ellipse class="cls-12" cx="435.56" cy="186.46" rx="10.83" ry="10.71"/><ellipse class="cls-12" cx="293.78" cy="202.03" rx="10.83" ry="10.71"/><path class="cls-9" d="M461.75,458.71c11.81,6.93,22.83,15.16,32.81,24.5,4.93-8.97,16.11-14.09,26.22-12.02-8.17-6.41-16.34-12.82-24.51-19.23-1.74-1.37-3.57-2.78-5.74-3.28-2.65-.61-5.41.22-8,1.04-5.76,1.82-11.53,3.65-17.29,5.47"/><path class="cls-9" d="M460.99,460.01c11.69,6.88,22.59,15.01,32.5,24.26.69.65,1.87.56,2.36-.3,4.73-8.44,15.02-13.2,24.53-11.33,1.3.26,2.75-1.49,1.46-2.51-7-5.5-14-10.99-21.01-16.49-2.93-2.3-5.99-5.4-9.7-6.36-4.05-1.05-8.23.74-12.04,1.95-4.75,1.5-9.5,3.01-14.25,4.51-1.83.58-1.05,3.48.8,2.89,3.97-1.26,7.94-2.51,11.92-3.77,1.94-.61,3.87-1.23,5.81-1.84,1.82-.57,3.69-1.14,5.61-1.05,3.76.17,6.95,3.61,9.73,5.79,3.24,2.54,6.48,5.09,9.73,7.63,3.76,2.95,7.52,5.9,11.28,8.85l1.46-2.51c-10.81-2.13-22.5,3.04-27.91,12.71l2.36-.3c-10.1-9.42-21.21-17.72-33.11-24.73-1.67-.98-3.18,1.61-1.51,2.59h0Z"/><path class="cls-6" d="M526.14,484.27c-4.03,8.61-19.95,12.37-27.57,5.84-.6-.51-3.99-3.53-3.94-7.79.1-7.92,12.04-15.07,21.66-13.63,1.45.22,7.32,1.1,9.85,5.84,2.38,4.46.2,9.31,0,9.73Z"/><path class="cls-9" d="M381.53,364.72c-14.08-.2-23.16,13.28-23.53,13.85-.2.31-.76,1.19-.48,2.03.33,1.01,1.69,1.4,2.04,1.5,4.47,1.39,22.26,13.14,26.78,16.52,4.03,3.02,9.34,8.24,13.6,17.69,9.51-8.87,22.47-14.03,35.55-14.15-.85-.79-2-1.81-3.43-2.93-1.91-1.5-3.41-2.47-3.67-2.64-6.98-4.61-27.13-31.59-46.85-31.87Z"/><path class="cls-9" d="M381.53,363.22c-7.13-.04-13.65,3.18-18.88,7.86-1.71,1.53-3.28,3.22-4.69,5.02-1.12,1.43-2.53,3.13-1.81,5.07.53,1.43,1.9,1.98,3.23,2.44.67.24,1.47.63,2.3,1.07,2.52,1.31,4.96,2.79,7.38,4.28,5.17,3.18,10.28,6.5,15.23,10.02,6.45,4.6,11.08,10.91,14.35,18.09.42.92,1.71.9,2.36.3,9.33-8.63,21.78-13.54,34.48-13.71,1.25-.02,2.04-1.66,1.06-2.56-2.17-2.01-4.49-3.86-6.95-5.5-1-.67-1.56-1.11-2.52-1.97-2.76-2.48-5.31-5.18-7.94-7.79-6.86-6.8-14.12-13.61-22.68-18.23-4.6-2.48-9.65-4.28-14.92-4.39-1.93-.04-1.93,2.96,0,3,9.23.19,17.63,5.94,24.49,11.62,6.5,5.37,12.13,11.6,18.29,17.32,3.17,2.94,6.92,5.12,10.1,8.06l1.06-2.56c-13.5.18-26.69,5.42-36.61,14.59l2.36.3c-3.04-6.66-7.31-12.85-13.09-17.42-3.99-3.16-8.36-5.9-12.63-8.65-4.57-2.94-9.21-6.12-14.21-8.3-.46-.2-2.09-.55-2.32-1.02-.16-.34.42-1,.64-1.33.84-1.19,2.03-2.58,3.26-3.84,4.94-5.07,11.39-8.83,18.64-8.79,1.93.01,1.93-2.99,0-3Z"/><path class="cls-15" d="M204.18,203c-58.71-46.86-105.2-78.14-123.3-84.02-7.84-2.54-24.22-7.87-31.68-.32-.02.02-.29.3-.58.63-7.36,8.67-1.89,31.79,9.85,48.66,7.91,11.37,12.42,10.92,43.32,33.09,19.97,14.33,19.15,15.29,41.43,31.46,21.39,15.53,37.67,25.92,44.58,30.4,83.51,54.1,188.14,144.82,197.54,134.73.08-.08.09-.11.22-.28,5-6.75,17.77-8.88,42.07-3.64-56.01-49.75-112.89-98.55-170.61-146.36-14.91-12.35-30.55-26.15-52.78-43.42-49.98-38.83-93.92-66.72-124.12-84.65"/><path class="cls-4" d="M396.18,482.32c-18.89,42.75-71.15,28.97-104.37,81.75-5.47,8.69-1.75,5.41-21.66,46.72-23.67,49.11-30.64,57.3-27.57,60.34,10.23,10.15,101.14-67.53,145.72-110.95,38.66-37.66,45.64-52.63,49.23-64.23,4.71-15.24,4.42-27.43,15.75-36.98,16.51-13.92,41.21-8.37,43.32-17.52.49-2.15-.57-3.76-7.88-13.63-11.13-15.02-16.69-22.53-17.72-23.36-14.73-11.86-47.13-8.48-63.01,7.79-18.72,19.17,1.59,39.73-11.82,70.07Z"/></svg>