<?xml version="1.0" encoding="UTF-8"?><svg id="Layer_1" xmlns="http://www.w3.org/2000/svg" width="673" height="587" xmlns:xlink="http://www.w3.org/1999/xlink" viewBox="0 0 673 587"><defs><style>.cls-1{fill:#009245;}.cls-1,.cls-2,.cls-3,.cls-4,.cls-5{stroke-width:0px;}.cls-2{fill:none;}.cls-3{fill:#c69c6d;}.cls-4{fill:#fcee21;}.cls-5{fill:#fff;}</style></defs><path class="cls-4" d="M342,305.5c-2.16,84.76-70.47,196.51-166.5,196.5-98.62-.01-164.03-112.85-166.5-196.5-1.81-61.12,29.89-110.3,32-113.5,21.03-31.77,30.6-23.64,83-82,24.14-26.89,32.75-40.47,49-41,17.64-.58,25.23,17.36,57,47,51.74,48.27,77.86,72.87,90,96,3.04,5.8,23.23,45.28,22,93.5Z"/><path class="cls-3" d="M170,46c-.2,4.2-.57,11.94-2,21-1.46,9.23-2.7,11.49-1,14,3.45,5.09,15.06,5.41,18,1,2.57-3.85-3.77-7.89-4-19-.08-3.79.66-3.21,3-18,1.47-9.32,1.52-11.71,0-14-2.6-3.91-8.84-6.07-12-4-2.85,1.87-1.38,5.98-2,19Z"/><path class="cls-1" d="M268,114.5c3.93,12.07-2.6,29.06-14,33.5-3.19,1.24-10.84,3.09-28.5-8-30.79-19.34-55.86-55.29-48.5-64,3.63-4.3,18.59,1.46,48.5,13,37.2,14.35,41.04,21.01,42.5,25.5Z"/><path class="cls-1" d="M210.19,167.89c-6.16,11.1-23.05,17.89-34.06,12.56-3.08-1.49-9.64-5.83-13.55-26.32-6.81-35.72,2.44-78.55,13.83-79.1,5.63-.27,11.59,14.61,23.51,44.37,14.83,37.01,12.57,44.36,10.27,48.49Z"/><path class="cls-2" d="M465,109.5c.09,9.38-5.51,11-11,25.5-6.45,17.03-3.07,26.23-8,28-5.77,2.07-17.05-8.17-21-20-5.08-15.23,1.85-33.52,2-33.5.02,0-.07.48,0,.5.7.18,11.91-54.62,19-54,3.32.29,1.38,12.32,10,32,5.36,12.23,8.93,14.04,9,21.5Z"/><path class="cls-4" d="M566,373c-1.72,82.93-83.6,163-179.5,163-97.69,0-174.5-83.59-179.5-163-3.01-47.75,19.76-97.11,44.59-126.31,12.67-14.9,26.46-25.23,28.41-26.69,2.4-1.78,32.02-23.35,67-30,60.92-11.58,114.06,26.79,130,38,14.81,10.42,90.68,63.77,89,145Z"/><path class="cls-5" d="M517.5,277.5c26.18,28.47,55.59,60.45,47,89-12.98,43.12-105.94,56.14-174,42-73.83-15.34-159.18-71.1-153-124,4.07-34.85,46.84-59.68,56-65,31.14-18.08,60.9-18.48,74-18.5,79.57-.09,133.5,58.55,150,76.5Z"/><path class="cls-4" d="M378.21,217.92c11.32-14.54,68.38-5.34,75.9,12.87,5.4,13.07-11.72,34.02-12.89,33.57-.14-.05-.06-.41-.24-.47-1.31-.46-8.43,16.75-9.48,16.36-.15-.05-.05-.41-.16-.45-1.11-.43-12.42,36.65-21.07,35.93-5.8-.49-5.64-17.67-15.52-47.33-11.55-34.69-22.43-42.94-16.55-50.49Z"/><path class="cls-4" d="M465.81,239.39c18.25-1.96,52.24,45.95,44.76,64.19-5.37,13.09-32.23,15.32-32.75,14.17-.06-.14.24-.33.16-.5-.61-1.28-17.75,5.61-18.23,4.58-.07-.14.25-.32.2-.43-.48-1.11-34.58,16.66-40.2,9.87-3.77-4.56,8.43-16.49,22.28-44.45,16.2-32.71,14.29-46.4,23.77-47.41Z"/><path class="cls-4" d="M539.45,320.01c19.12,10.61,13.84,58.14-7.81,63.17-15.54,3.61-43.17-12.36-42.75-13.31.05-.11.49-.02.55-.17.42-1.08-21.54-8.33-21.18-9.19.05-.12.5-.02.54-.1.42-.9-46.5-13.14-46.52-20.39-.01-4.87,21.19-3.49,56.7-9.69,41.53-7.25,50.55-15.84,60.48-10.33Z"/><path class="cls-4" d="M291.65,260.14c-5.92-15.99,15.83-34.53,27.12-41.42,6.79-4.14,19.84-12.11,32.26-5.34,6.88,3.75,11.1,10.68,12.66,13.24,6.42,10.54,7.68,23.17,6.44,23.45-.21.05-.39-.27-.54-.2-1.16.56,8.5,19.68,7.25,20.29-.12.06-.25-.11-.35-.07-1.34.58,21.5,38.57,15.63,44.58-4.02,4.12-18.23-10.2-48.63-26.39-34.04-18.12-47.71-16.92-51.87-28.15Z"/><path class="cls-4" d="M261.54,322.33c-19.11-15.11-5.55-59.23,18.9-58.43,17.55.57,45.06,23.02,44.45,23.82-.07.1-.54-.11-.63.02-.64.92,22.12,13.55,21.59,14.28-.07.1-.54-.11-.6-.04-.6.76,48.56,24.63,47.4,31.57-.78,4.66-23.68-2.16-63.43-5.43-46.49-3.83-57.74,2.05-67.66-5.79Z"/><path class="cls-4" d="M301.01,391.03c-18.28-4.42-25.15-45.99-8.48-55.45,11.97-6.79,38.53.14,38.41,1.05-.01.11-.4.13-.42.28-.09,1.01,19.73,1.9,19.64,2.72-.01.11-.41.13-.42.22-.13.86,41.46,0,43.19,6.15,1.16,4.12-16.65,8.03-44.48,21.79-32.55,16.09-37.95,25.54-47.44,23.24Z"/><path class="cls-4" d="M399.51,414.99c-11.16,4.87-46.45-19.6-46.79-32.93-.24-9.57,16.36-16.32,17.02-15.67.08.08-.07.26.04.36.75.71,9.81-7.15,10.4-6.57.08.08-.07.26,0,.32.62.63,17.49-17.66,23.01-14.35,3.7,2.22-.76,12.39-1.78,33.31-1.19,24.47,3.89,33-1.9,35.53Z"/><path class="cls-4" d="M494.91,383.69c-.17,14.95-46.88,44.54-62.49,39.01-11.2-3.97-10.37-25.99-9.27-26.46.13-.06.27.19.44.11,1.21-.55-3.17-14.41-2.19-14.84.14-.06.27.19.37.15,1.05-.43-11.33-27.88-4.62-32.73,4.5-3.26,13.94,6.37,37.63,16.82,27.71,12.22,40.23,10.18,40.14,17.94Z"/><ellipse class="cls-2" cx="90.5" cy="219" rx="38.5" ry="72"/><image width="76" height="151" transform="translate(54 171)" xlink:href="Citron-1.png"/></svg>