<?xml version="1.0" encoding="UTF-8"?>
<svg id="Layer_1" data-name="Layer 1" xmlns="http://www.w3.org/2000/svg" viewBox="0 0 2225 1867">
  <defs>
    <style>
      .cls-1 {
        stroke: #000;
        stroke-miterlimit: 10;
      }

      .cls-1, .cls-2 {
        fill: #e6e6e6;
      }

      .cls-3 {
        fill: #fff;
      }

      .cls-3, .cls-2 {
        stroke-width: 0px;
      }
    </style>
  </defs>
  <g>
    <polygon class="cls-1" points="1270.05 1860 921.03 1273.14 225.15 1406.85 705.33 910.44 356.31 323.59 1002.1 603.65 1482.28 107.24 1401.21 776.73 2047 1056.79 1351.11 1190.5 1270.05 1860"/>
    <polygon class="cls-2" points="1706.5 1742.6 1081.51 1381.35 526.41 1833.9 695.25 1158.09 70.26 796.84 799.6 740.42 968.43 64.61 1250.35 705.54 1979.69 649.12 1424.58 1101.66 1706.5 1742.6"/>
  </g>
  <path class="cls-3" d="M839,727c-49.67-34-99.33-68-149-102-40-39.33-80-78.67-120-118,82.67,22,165.33,44,248,66,7,51.33,14,102.67,21,154Z"/>
  <path class="cls-2" d="M1638.44,896.42c28.45,12.94,56.9,25.88,85.35,38.82,51.14,23.05,102.29,46.11,153.43,69.16-85.17,7.98-170.34,15.96-255.51,23.94,5.58-43.97,11.16-87.95,16.74-131.92Z"/>
  <path class="cls-3" d="M873.58,1399.66c-22.24,19.61-44.48,39.22-66.72,58.83-60.93,74.36-121.87,148.72-182.8,223.07,42.15-116.43,84.29-232.87,126.44-349.3,41.03,22.47,82.06,44.93,123.08,67.4Z"/>
  <path class="cls-3" d="M725,1027c-176.42,167.96-271,258-271,258h0c66.95-67.59,95.33-164.67,143-247h0c-76.33-74.67-152.67-149.33-229-224l357,213Z"/>
  <path class="cls-3" d="M873.59,641.96c11.13-59.15,22.25-118.3,33.38-177.46,19.9-52.45,39.8-104.9,59.7-157.35,13.15,84.53,26.29,169.06,39.44,253.58-44.17,27.08-88.34,54.15-132.51,81.23Z"/>
  <path class="cls-3" d="M1465.63,736.95c59.98-5.03,119.96-10.06,179.94-15.09,55.86,5.21,111.71,10.42,167.57,15.63-77.97,35.18-155.95,70.37-233.92,105.55-37.86-35.36-75.72-70.73-113.59-106.09Z"/>
</svg>