<?xml version="1.0" encoding="UTF-8"?><svg id="Layer_1" xmlns="http://www.w3.org/2000/svg" width="2340" height="1409" xmlns:xlink="http://www.w3.org/1999/xlink" viewBox="0 0 2340 1409"><defs><style>.cls-1{fill:#009245;}.cls-1,.cls-2,.cls-3,.cls-4,.cls-5{stroke-width:0px;}.cls-6{stroke:#000;stroke-miterlimit:10;}.cls-6,.cls-5{fill:#e6e6e6;}.cls-2{fill:none;}.cls-3{fill:#fcee21;}.cls-4{fill:#fff;}</style></defs><image width="2854" height="1548" transform="translate(394 118) scale(.56 .66)" xlink:href="../Skærmbillede 2024-06-04 kl. 10.10.05.png"/><path class="cls-3" d="M2023.43,1039.37c-2.41,113.49-78.5,263.12-185.48,263.1-109.86-.01-182.73-151.1-185.48-263.1-2.02-81.84,33.3-147.69,35.65-151.97,23.43-42.54,34.09-31.65,92.46-109.79,26.89-36,36.48-54.19,54.59-54.9,19.65-.78,28.11,23.24,63.5,62.93,57.64,64.63,86.74,97.57,100.26,128.54,3.39,7.77,25.88,60.63,24.51,125.19Z"/><path class="cls-1" d="M1941,783.64c4.38,16.16-2.9,38.91-15.6,44.85-3.55,1.66-12.08,4.14-31.75-10.71-34.3-25.9-62.23-74.03-54.03-85.69,4.04-5.76,20.71,1.95,54.03,17.41,41.44,19.21,45.72,28.13,47.35,34.14Z"/><path class="cls-1" d="M1876.59,855.12c-6.86,14.86-25.68,23.95-37.94,16.82-3.43-2-10.74-7.81-15.09-35.24-7.59-47.83,2.72-105.17,15.41-105.91,6.27-.36,12.91,19.56,26.19,59.41,16.52,49.55,14,59.4,11.44,64.93h0Z"/><path class="cls-2" d="M2160.45,776.94c.1,12.56-6.14,14.73-12.25,34.14-7.19,22.8-3.42,35.12-8.91,37.49-6.43,2.77-18.99-10.94-23.39-26.78-5.66-20.39,2.06-44.88,2.23-44.85.02,0-.08.64,0,.67.78.24,13.27-73.13,21.17-72.3,3.7.39,1.54,16.5,11.14,42.85,5.97,16.38,9.95,18.8,10.03,28.79Z"/><path class="cls-3" d="M2272.97,1129.75c-1.92,111.04-93.13,218.25-199.96,218.25s-194.39-111.92-199.96-218.25c-3.35-63.93,22.01-130.02,49.67-169.12,14.11-19.95,29.48-33.78,31.65-35.74,2.67-2.38,35.67-31.26,74.64-40.17,67.87-15.5,127.06,35.87,144.82,50.88,16.5,13.95,101.02,85.38,99.15,194.15Z"/><path class="cls-4" d="M2218.94,1001.88c29.16,38.12,61.93,80.94,52.36,119.17-14.46,57.74-118.02,75.17-193.84,56.24-82.25-20.54-177.33-95.2-170.44-166.03,4.53-46.66,52.18-79.91,62.38-87.03,34.69-24.21,67.84-24.74,82.44-24.77,88.64-.12,148.72,78.4,167.1,102.43Z"/><path class="cls-3" d="M2063.77,922.11c12.61-19.47,76.18-7.15,84.55,17.23,6.02,17.5-13.06,45.55-14.36,44.95-.16-.07-.07-.55-.27-.63-1.46-.62-9.39,22.43-10.56,21.91-.17-.07-.06-.55-.18-.6-1.24-.58-13.84,49.07-23.47,48.11-6.46-.66-6.28-23.66-17.29-63.37-12.87-46.45-24.99-57.49-18.44-67.6h.01Z"/><path class="cls-3" d="M2161.36,950.86c20.33-2.62,58.2,61.52,49.86,85.95-5.98,17.53-35.9,20.51-36.48,18.97-.07-.19.27-.44.18-.67-.68-1.71-19.77,7.51-20.31,6.13-.08-.19.28-.43.22-.58-.53-1.49-38.52,22.31-44.78,13.22-4.2-6.11,9.39-22.08,24.82-59.52,18.05-43.8,15.92-62.13,26.48-63.48v-.03Z"/><path class="cls-3" d="M2243.39,1058.8c21.3,14.21,15.42,77.85-8.7,84.58-17.31,4.83-48.09-16.55-47.62-17.82.06-.15.55-.03.61-.23.47-1.45-24-11.15-23.59-12.3.06-.16.56-.03.6-.13.47-1.21-51.8-17.59-51.82-27.3-.01-6.52,23.61-4.67,63.16-12.97,46.26-9.71,56.31-21.21,67.38-13.83h-.01Z"/><path class="cls-3" d="M1967.34,978.64c-6.59-21.41,17.63-46.23,30.21-55.46,7.56-5.54,22.1-16.21,35.94-7.15,7.66,5.02,12.37,14.3,14.1,17.73,7.15,14.11,8.56,31.02,7.17,31.4-.23.07-.43-.36-.6-.27-1.29.75,9.47,26.35,8.08,27.17-.13.08-.28-.15-.39-.09-1.49.78,23.95,51.64,17.41,59.69-4.48,5.52-20.31-13.66-54.17-35.33-37.92-24.26-53.15-22.65-57.78-37.69h.03Z"/><path class="cls-3" d="M1933.8,1061.91c-21.29-20.23-6.18-79.31,21.05-78.23,19.55.76,50.2,30.82,49.52,31.89-.08.13-.6-.15-.7.03-.71,1.23,24.64,18.14,24.05,19.12-.08.13-.6-.15-.67-.05-.67,1.02,54.1,32.98,52.8,42.27-.87,6.24-26.38-2.89-70.66-7.27-51.79-5.13-64.32,2.74-75.37-7.75h-.02Z"/><path class="cls-3" d="M1977.77,1153.89c-20.36-5.92-28.02-61.58-9.45-74.24,13.33-9.09,42.92.19,42.79,1.41-.01.15-.45.17-.47.37-.1,1.35,21.98,2.54,21.88,3.64-.01.15-.46.17-.47.29-.14,1.15,46.19,0,48.11,8.23,1.29,5.52-18.55,10.75-49.55,29.18-36.26,21.54-42.28,34.2-52.85,31.12h0Z"/><path class="cls-3" d="M2087.5,1185.97c-12.43,6.52-51.75-26.24-52.12-44.09-.27-12.81,18.23-21.85,18.96-20.98.09.11-.08.35.04.48.84.95,10.93-9.57,11.59-8.8.09.11-.08.35,0,.43.69.84,19.48-23.65,25.63-19.21,4.12,2.97-.85,16.59-1.98,44.6-1.33,32.76,4.33,44.19-2.12,47.57h0Z"/><path class="cls-3" d="M2193.77,1144.07c-.19,20.02-52.22,59.64-69.61,52.23-12.48-5.32-11.55-34.8-10.33-35.43.14-.08.3.25.49.15,1.35-.74-3.53-19.29-2.44-19.87.16-.08.3.25.41.2,1.17-.58-12.62-37.33-5.15-43.82,5.01-4.36,15.53,8.53,41.92,22.52,30.87,16.36,44.82,13.63,44.72,24.02h-.01Z"/><ellipse class="cls-2" cx="1743.26" cy="923.55" rx="42.89" ry="96.4"/><polygon class="cls-6" points="379.95 795 269.42 604.2 49.05 647.67 201.12 486.28 90.59 295.48 295.1 386.54 447.16 225.14 421.49 442.81 626 533.86 405.62 577.33 379.95 795"/><polygon class="cls-5" points="518.17 756.83 320.25 639.38 144.45 786.51 197.92 566.8 0 449.35 230.97 431 284.44 211.28 373.71 419.66 604.68 401.32 428.89 548.45 518.17 756.83"/><path class="cls-4" d="M243.45,426.64c-15.73-11.05-31.46-22.11-47.19-33.16-12.67-12.79-25.33-25.58-38-38.36,26.18,7.15,52.36,14.31,78.54,21.46,2.22,16.69,4.43,33.38,6.65,50.07Z"/><path class="cls-5" d="M496.62,481.72c9.01,4.21,18.02,8.41,27.03,12.62,16.2,7.49,32.39,14.99,48.59,22.49-26.97,2.59-53.94,5.19-80.92,7.78,1.77-14.3,3.53-28.59,5.3-42.89h0Z"/><path class="cls-4" d="M254.4,645.33c-7.04,6.38-14.09,12.75-21.13,19.13-19.3,24.18-38.59,48.35-57.89,72.52,13.35-37.85,26.69-75.71,40.04-113.56,12.99,7.31,25.99,14.61,38.98,21.91Z"/><path class="cls-4" d="M207.35,524.18c-55.87,54.61-85.82,83.88-85.82,83.88h0c21.2-21.97,30.19-53.54,45.29-80.3h0c-24.17-24.28-48.35-48.55-72.52-72.83l113.06,69.25Z"/><path class="cls-4" d="M254.4,398.99c3.52-19.23,7.05-38.46,10.57-57.7,6.3-17.05,12.6-34.11,18.91-51.16,4.16,27.48,8.33,54.96,12.49,82.44-13.99,8.8-27.98,17.61-41.96,26.41h0Z"/><path class="cls-4" d="M441.89,429.87c18.99-1.64,37.99-3.27,56.98-4.91,17.69,1.69,35.38,3.39,53.07,5.08-24.69,11.44-49.39,22.88-74.08,34.32-11.99-11.5-23.98-23-35.97-34.49h0Z"/></svg>