<?xml version="1.0" encoding="UTF-8"?>
<svg id="Layer_1" data-name="Layer 1" xmlns="http://www.w3.org/2000/svg" viewBox="0 0 1920 1080">
  <defs>
    <style>
      .cls-1 {
        fill: none;
        stroke: #ed1c24;
        stroke-miterlimit: 10;
        stroke-width: 8px;
      }
    </style>
  </defs>
  <path class="cls-1" d="M1094,183c.89,1.38,18.51,28.54,21.5,36.5.36.97,1.13,3.31,3,6,2.39,3.44,4.21,4.05,4,5-.48,2.14-10.29.85-23.5,1.5-3.09.15-12.61.87-24,4-10.27,2.83-12.95,5.11-13,7-.09,3.18,7.26,4.06,9,10,.86,2.93-.32,4.81-1,8-1.79,8.38,2.97,11.23,6,25,1.05,4.76,1.44,10.49,2,22,.69,14.06,1.03,21.09-.5,21.5-3.36.89-6.94-26.98-28.5-51.5-5.44-6.19-18.72-20.92-40-27-14.07-4.02-27.78-3.16-30-3-6.82.48-12.77,1.72-16.5,2.5-12.75,2.66-17.11,5.28-28,6-4.84.32-8.82.12-11,0-9.1-.49-17.84-2.17-19.5-2.5-6.67-1.31-7.12-1.85-9.5-1.5-5.02.74-10.69,4.27-12.5,9.5-1.93,5.55,1.64,9.65,0,11-2.4,1.98-12.82-5.68-21-14-5.87-5.98-14.93-15.19-20-30-3.12-9.1-1.3-10.31-5-25-3.1-12.3-6.7-20.68-8-24-2.15-5.49-22.74-57.93-4-85,14.69-21.23,50.44-22.35,103-24,7.83-.25,15.67-.15,27,0,37.2.48,44.69,2.54,49,4,12.1,4.09,19.5,10.25,30,19,16.74,13.94,25.86,27.69,38,46,14.08,21.23,9.39,22,23,43Z"/>
  <path class="cls-1" d="M1461.5,197.5c14.81,24.78,22.96,38.42,24,58,.48,9.01-1.34,4.35-13,55-.7,3.03-2.1,8.96-7,14-2.82,2.9-6.74,5.43-16,8-16.06,4.46-17.24.46-27,4-12.33,4.48-13.45,11.97-27,16-1.69.5-6.49,1.82-11,3-7.18,1.88-10.77,2.82-12,3-11.31,1.65-21.54-16.84-38-35-13.75-15.17-26.65-24.27-29-26-14.73-10.83-16.63-7.35-57-26-26.3-12.15-39.44-18.23-42-20-9.18-6.37-16.84-13.36-27-12-7.31.98-8.5,5.29-17,6-6.43.54-11.7-1.63-22-6-8.78-3.72-14.54-6.17-18-9-21.47-17.6,5.78-83.4,11-96,11.48-27.71,22.34-39.62,31-47,3.63-3.1,11.84-9.97,24-15,11.98-4.95,22.31-5.84,74-1,37.68,3.53,12.83,2.19,63,8,12.61,1.46,24.43,2.73,38,10,8.81,4.72,14.37,9.83,21,16,16.86,15.7,16.83,22.56,35,42,10.87,11.64,12.38,10.78,22,22,3.3,3.85,11.39,13.59,20,28Z"/>
  <path class="cls-1" d="M1327.5,404.5c-3.61,4.75-2,4.17-9,17-7.18,13.17-13.59,22.41-23,36-5.9,8.52-8.85,12.78-11,15-1.97,2.04-3.09,2.92-4,5-1.99,4.55.39,7.11,0,15-.15,3.01-.31,6.27-2,10-1.67,3.67-3.1,4.02-5,8-1.8,3.79-3.27,9.27-2,10,1.43.83,5.23-5.08,15-14,8.08-7.38,11.86-9.15,14-10,5.77-2.3,13.63-3.51,15-1,.64,1.17-.43,2.6-3,7-5.54,9.5-4.6,9.77-7,13-6.13,8.23-15.25,10.44-15,11,.32.71,13.02-6.78,30-8,7.34-.53,9.89.52,18,1,0,0,17.49,1.03,38-4,25.01-6.13,24.4-15.54,54-24,13.43-3.84,22.48-4.45,31-1,4.82,1.95,8.22,4.97,15,11,11.14,9.9,17.73,15.76,22,25,5.96,12.89,4.13,25.29,3,33-.73,4.99-1.84,8.99-15,42-5.99,15.01-8.4,20.82-6,23,2.53,2.3,8.58-1.11,21-7,10.52-4.99,21.43-9.12,32-14,30.43-14.05,38.37-17.52,48-20,10.1-2.6,15.15-3.9,21-4,3.59-.06,6.72.22,11-1,6.24-1.78,10.25-5.41,12-7,35-31.68,32.03-25.89,45-41,14.16-16.5,26.6-31.08,39-54,12.8-23.67,22.84-42.81,21-68-1.23-16.87-7.35-30.58-8-32-3.66-8.03-6.36-10.7-20-31-15.5-23.05-13.65-22.03-16-24-10.89-9.11-20.29-5.73-62-9-19.14-1.5-18.19-2.29-41-4-22.61-1.69-33.92-2.54-42-2-27.15,1.82-50.41,10.82-61,15-12.9,5.09-18.26,8.57-31,11-13.63,2.61-16.7.39-27,4-14.39,5.05-12.59,10.85-27,16-12.88,4.6-24.79,3.71-26,9-.63,2.74,2.19,4.54,1,7-1.58,3.25-7.23,1.55-13,5-3.45,2.06-4.69,4.62-7,8-8.3,12.17-14.49,11.79-23,23Z"/>
  <path class="cls-1" d="M1660.5,774.5c-8.36,6.65-10.74,8.02-20,15-9.4,7.08-16.06,12.51-24,19-20.41,16.66-19.23,17.1-26,22-21.67,15.67-53.69,25.64-62,16-2.09-2.43-1.15-4.32-1-20,0,0,.17-16.93-1-32-1.38-17.86-4.65-15.64-8-38-2.96-19.76-1.5-28.71-6-44-2.52-8.57-6-17-6-17-2.78-6.74-5.31-11.66-6-13-6.57-12.67-10.42-20.09-18-27-5.39-4.91-8.17-5.46-10-10-2.04-5.06-1.56-11.75,2-16,3.29-3.94,8.33-4.71,10-5,.39-.07,17.59-7.71,52-23,22.56-10.03,32.84-15.54,45-18,11.13-2.25,17-3,17-3,9.68-1.24,10.72-.58,15-2,9.63-3.2,10.93-8.75,16-8,6.41.95,10.11,10.66,11,13,2.49,6.52.61,8.64,3,14,2.43,5.44,5.81,6.51,12,12,0,0,10.28,9.11,17,22,2.85,5.46.71,3.33,7,22,2.01,5.97,5.93,17.18,7,29,.23,2.57.37,5.65-1,9-1.84,4.51-4.61,5.13-7,9-3.75,6.08-2.33,13.34-2,15,1.67,8.51,6.99,8.33,10,18,.82,2.65,2.83,9.42,0,16-1.5,3.49-3.64,5.24-8,9-15.29,13.18-8.54,8.47-18,16Z"/>
  <path class="cls-1" d="M1520.5,863.5c-5.97,16.62-15.49,31.2-18,35-9.37,14.2-14.38,17.42-17,28-.09.37-1.88,7.61-5,17-2.24,6.73-3.26,8.84-5,11-.93,1.16-5.6,6.69-13,8-7.72,1.37-9.54-3.43-17-3-11.74.67-19.55,13.26-20,14-5.96,9.89-.81,14.98-6,21-5.58,6.47-13.84,3.27-34,7-10.54,1.95-14.3,3.94-22,6-25.53,6.84-49.23,2.43-73-2-24.6-4.58-37.38-6.96-52-17-14.74-10.12-22.84-22.17-28-30-10.11-15.35-13.77-27.97-22-58-11.09-40.48-16.63-60.72-18-67-5.52-25.35-13.92-70.45-17-91,0,0-1.24-8.27-5-24-1.29-5.38-2.23-8.82-4-13-3.55-8.38-5.58-8.33-6-12-.87-7.68,7.99-8.64,15-23,5.16-10.57,9-20,9-20,1.34-3.29,2.68-6.77,5-7,2.27-.23,4.04,2.8,7,7,7.31,10.36,8.29,8.59,13,16,2,3.15,4.3,7.37,8,18,6.96,19.99,10.45,29.99,11,43,.5,11.78-1.48,19.07,4,25,.62.67,4.48,4.73,10,5,5.57.27,9.48-3.48,13-6,7.07-5.07,11.22-4.18,28-8,12.2-2.78,21.8-6.18,41-13,12.73-4.52,24.74-9.27,31-17,5.93-7.32,7-9,7-9,2.89-4.54,3.8-7.33,7-9,2.34-1.22,4.57-1.14,7-1,10.66.61,16.05,1.81,20,2,5.41.26,8.74-1.35,19-6,35.21-15.93,32.96-13.65,42-19,14.55-8.61,21.82-12.92,25-18,2-3.2,4.82-8.95,9-9,2.4-.03,4.52,1.83,7,4,3.76,3.29,5.79,6.65,6,7,5.26,8.71,11,17.14,16,26,10.8,19.14,12.91,17.8,16,27,3.45,10.25,3.09,18.62,3,24-.66,41.85,13.06,51.59,10,94-.73,10.14-1.69,22.22-7,37Z"/>
  <path class="cls-1" d="M1468.5,640.5c7.03-11.42,12.02-23.95,22-49,2.16-5.43,4.57-11.65,7-20,3.3-11.37,4.95-17.06,5-24,.02-2.25-.09-17.65-10-31-3.21-4.32-7.71-8.78-9-8-1.06.64.93,4.28,1,9,.1,6.59-3.6,11.73-7,16-10.26,12.89-22.17,23.38-24,25-10.86,9.63-16.98,18.28-26,31-19.77,27.89-11.47,34.61-26,52-12.57,15.05-28.38,21.36-60,34-21.05,8.41-23.7,6.77-44,16-17.21,7.82-30.34,13.94-43,27-13.3,13.72-22.71,31.62-21,33,.47.38,1.62-.64,4-2,7.01-4,13.24-4.36,18-5,3.92-.52,12.28-3.02,29-8,16.75-4.99,25.13-7.49,33-12,8.18-4.69,13.52-7.74,19-14,6.99-7.99,8.29-14.42,15-16,1.52-.36.71.14,13,1,6.67.46,9.55.5,13,0,3.61-.52,6.28-1.41,8-2,19.57-6.72,37-15,37-15,15.92-7.57,23.92-11.38,26-13,8.69-6.76,13.07-13.74,20-25Z"/>
  <path class="cls-1" d="M1137.5,771.5c-3.11,23.57-6.24,22.68-6,36,.08,4.3.57,13.6,0,25,0,0-.21,4.13-1,10-1.12,8.32-1.69,12.48-3,13-5.09,2.01-17.18-21.21-29-33-.63-.63-2.35-2.32-4-5-2.14-3.49-3.35-7.36-4-13-1.27-11.06,1.61-11.81,0-19-.91-4.08-2.94-7.39-7-14-1.53-2.49-4.95-8.01-10-14-11.43-13.53-17.12-12.73-33-28-8.24-7.93-17.99-18.99-18-19h0s2.34-2.43,3-3c3.25-2.85,9.34,1.13,17,1,4.27-.07,7.31-1.39,11-3,3.19-1.39,9.28-4.57,17-14,9.67-11.81,6.77-14.96,17-28,1.66-2.11,5.44-6.07,13-14,5.67-5.94,10.62-10.92,12-10,1.3.87-2.19,5.9,0,9,1.76,2.49,6.14,2.22,9,2,4.34-.33,8.51-1.58,19-7,8.09-4.18,9.76-5.59,14-6,4.01-.39,9.89.15,11,3,.61,1.55-.52,2.95-2,6-2.67,5.51-1.82,6.8-4,13-2.85,8.1-7.06,13.76-8,15-2.77,3.64-4.56,4.96-10,12-1.68,2.18-2.53,3.27-3,4-4.54,7-3.64,15.54-3,21,2.36,19.99,3.41,22.76,4,30,.75,9.17-.17,16.11-2,30Z"/>
  <path class="cls-1" d="M1128.5,857.5c4.53,4.29,5.85,9.36,7,13,3.16,9.98,4.54,7.7,8,18,3.04,9.07,1.19,8.52,5,27,1.93,9.34,3.15,13.13,1,15-2.35,2.04-7.85,1.03-11-2-5.22-5.04,1.14-12.51-4-21-1.61-2.65-4.07-4.77-9-9-4.45-3.82-6.01-4.34-8-7-2.87-3.82-2.13-6.94-4-12-1.85-4.99-5.49-14.63-13-24-4.06-5.07-4.69-4.37-9-10-3.03-3.96-6.63-8.67-9-15-1.17-3.12-1.08-4.07-3-22-1.36-12.71-1.64-14.37-3-17-4-7.73-9-12-9-12-1.4-1.2-2.67-2.06-4-4-2.44-3.56-2.86-7.51-3-9-.28-2.97.29-3.24,0-5-.68-4.13-4.44-6.36-8-9-3.13-2.32-11.77-8.74-16-18-2.15-4.72-3.25-10.37-2-11,1.3-.66,3.94,4.76,11,11,6.31,5.57,8.78,5.28,16,11,5.27,4.18,8.51,7.94,12,12,.64.74,8.52,10.02,15,23,1.41,2.82,2.57,5.46,3,9,.57,4.7-.69,6.6-1,11-.61,8.54,3.12,15.38,4,17,2.24,4.11,3.17,3.45,11,13,1.74,2.12,4.1,4.99,7,9,5.43,7.49,6.98,10.94,12,15,2.28,1.85,2.41,1.49,4,3Z"/>
  <path class="cls-1" d="M1043.5,745.5c7.08,7.1,12.35,5.59,15,12,.39.94.93,3.3,2,8,1.27,5.58,1.46,7.53,3,10,1.45,2.33,2.39,2.39,5,5,5.88,5.87,8.19,12.62,9,15,.92,2.68,1.29,5.16,2,10,1.87,12.76.59,13.13,2,20,.46,2.26,3,13.88,9,20,.53.54,3.86,3.86,5,5,4.09,4.08,4.45,4.42,5,5,2.91,3.08,4.82,6.38,7,11,5.35,11.35,4.76,14.72,8,21,5.21,10.09,15.28,11.38,19,20,1.65,3.82,2,7,2,7,.45,4.11-.68,4.91,0,8,.62,2.81,2.58,6.77,6,8,3.41,1.23,6.51-.89,7,0,.48.87-1.84,4.1-5,5-6.53,1.85-14.34-6.9-18-11-4.02-4.5-6.34-8.46-10-15-6.73-12.02-5.39-12.26-9-17-5.74-7.54-8.66-6.31-15-14-7.4-8.98-4.35-11.79-10-17-7.53-6.95-13.9-2.83-27-10-5.3-2.9-3.69-3.26-14-11-16.87-12.66-19.7-10.57-26-18-7.28-8.58-4.56-12.62-13-21-4-3.98-5.97-4.41-14-10,0,0,0,0,0,0-2.9-1.93-12.5-8.66-20-16-.74-.72-5.82-7.48-16-21-6-7.97-7.31-9.78-9-13-2.34-4.47-2.9-6.87-6.04-11.2-1.26-1.74-2.44-3.1-3.96-5.8-2.03-3.61-2.82-6.36-3-7-.55-1.97-.32-1.99-1-5-.65-2.86-1.32-4.94-2-7-.72-2.21-1.7-4.93-3-8,0,0-2.36-6.73-8-19,0,0,0,0,0,0-1.4-3.75,1.28-6.43,1-10-.24-3.13-2.56-4.3-2-5,.89-1.13,6.76,1.95,16,7,3.92,2.15,8.03,3.93,12,6,15.86,8.26,34.9,14.42,40,16,19.24,5.95,27.75,6.04,34,13,3.57,3.97,5.09,8.71,11,12,1.56.87,5.17,2.6,6,6,.34,1.39.09,2.52,0,3-.98,5.43,3.86,13.85,9,19Z"/>
  <path class="cls-1" d="M952.5,472.5c-9.96-6.18-22.28-16.18-45-31-2.11-1.38-6.38-4.08-12-4-10.54.16-18.36,9.99-23,16-9.51,12.31-6.44,16.59-15,28-3.98,5.31-10.04,9.94-22,19-23.49,17.79-24.51,14.95-30,22-7.52,9.66-9.35,19.81-13,40-1.86,10.27-2.75,15.52-1,21,3.15,9.89,11.33,14.55,25,23,7.85,4.86,19.49,14.13,28.56,18.65,1.14.57,4.81,2.35,9.44,5.35,3.33,2.16,5.39,3.8,7,5,2.45,1.82,5.27,3.65,16,9,15.71,7.83,23.56,11.75,27,13,6.1,2.23,9.13,2.81,11,6,2.46,4.2.06,7.97,1,15,.79,5.86,3.26,9.17,6,14,8.79,15.46,4.31,18.2,13,35,6.2,11.98,9.29,17.97,15,24,2.16,2.28,5.65,5.58,7,11,1.08,4.37,1,11,1,11,0,0-37.27,19.5-71,13-12.53-2.42-23.35-9.61-45-24-13.56-9.02-22.63-16.43-40-31-39.2-32.87-58.79-49.31-67-58-9.73-10.3-27.5-29.3-43-55-2.14-3.55-8.43-15.37-21-39-.53-1-4.53-8.56-9-19-4.8-11.21-7.19-16.9-7-21,.23-4.87,2.36-9.74,21-27,14.45-13.38,18.23-15.14,31-27,10.41-9.67,10.89-11.28,22-22,6.5-6.27,19.03-18.35,32-28,28.55-21.23,56.09-28.32,71-32,30.61-7.56,40.68-2.79,45,0,3.94,2.54,5.95,5.26,13,9,9.01,4.77,17.35,6.49,25,8,13.67,2.71,15.46,1,22,4,7.52,3.45,10.77,8.27,16,14,10.77,11.78,21.55,18.2,33,25,22.81,13.56,41.5,15.05,41,19-.35,2.76-9.71,3.69-13,4-34.28,3.2-62-14-62-14Z"/>
  <path class="cls-1" d="M970.5,622.5c7.82,4.66,16.65,13.5,34,31,44.33,44.72,43.11,50.32,42,52-1.49,2.26-5.99,1.84-15,1-9.44-.88-15.93-3.22-27-7-19.55-6.67-14.78-4.65-24-8-19.59-7.11-33.97-13.62-37-15-13.32-6.09-12.28-6.42-32-16-22.89-11.13-22.26-9.7-34-16-10.56-5.67-7.04-4.92-37-23-9.11-5.5-17.49-12.24-27-17-5.32-2.66-11.5-5.37-17-12-4.16-5.01-7.82-12.14-6-14,.88-.91,2.69-.17,7,1,0,0,.07.02,14,3,7.26,1.55,10.26-.1,22-1,1.75-.13,13.2-.98,23,0,12.1,1.21,16.73,4.71,36,12,12.55,4.75,10.08,3.07,30,10,25.8,8.97,38.69,13.45,48,19Z"/>
  <path class="cls-1" d="M887.5,297.5c1.96,21.33,8.35,19.68,16,52,5.66,23.91,1.81,23.33,7,36,8.92,21.79,24.13,32.83,21,37-1.79,2.39-8.06.45-16-2-6.91-2.14-19.62-6.06-30-15-11.13-9.58-12.64-18.95-21-38-4.16-9.47-15.73-35.83-35-59-14.7-17.68-21.42-18.52-37-40-8.62-11.88-19.93-27.77-15-35,4.89-7.16,20,2.58,38-7,10.62-5.65,13.88-13.57,19-12,4.88,1.5,3.4,9.2,10,23,2.4,5.02,6.94,14.28,16,22,8.62,7.35,21,13,21,13h0s5.31,17.53,6,25Z"/>
  <path class="cls-1" d="M1091.5,371.5s5.13,16.72,10,48c1.13,7.26,2.04,14.35-2,20-3.78,5.28-8.58,4.68-13,12-2.14,3.54-2.77,6.59-6,8-2.91,1.27-5.93.33-7,0-6.95-2.16-7.01-8.56-13-10-4.45-1.07-8.31,1.52-9,2-3.69,2.58-6,7.46-5,12,.72,3.29,3.32,7,6,7,1.74,0,2.03-1.56,5-3,.71-.35,4.92-2.3,8-1,2.82,1.19,3.72,4.7,5,10,2.21,9.15,1.12,14.74,4,16,1.95.86,3.87-1.08,5,0,1.33,1.27.4,5.54-2,7-2.78,1.69-6.89-.81-11-3-10.43-5.57-22.06-8.51-33-13-6.62-2.72-4.55-1.77-15-6-17.52-7.09-26.28-10.63-29-12-24.28-12.23-38.38-31.57-52-41-.65-.45-2.65-1.81-5-4-4.28-3.98-6.7-7.88-8-10-10.3-16.84-15.44-25.25-17-33-1.29-6.43.23-4.95-1-15-1.61-13.11-5.09-22.95-8-31-5.68-15.73-7.9-15.74-10-26-2.15-10.49.33-9.74-2-21-2.54-12.28-6.6-18.59-3-25,1.6-2.86,3.95-4.35,5-5,6.6-4.09,13.93-1.56,23,0,0,0,11.93,2.05,28,1,13.22-.86,12.81-3.67,29-6,8.87-1.28,20.19-2.84,34,0,3.45.71,16.3,3.59,30,13,16.04,11.01,24.22,24.76,29,33,8.34,14.37,15,32.99,15,33h0s4.02,9.95,4.43,10.97c2.11,5.25,5.42,14.51,10.57,32.03Z"/>
  <path class="cls-1" d="M1357.5,373.5c3.65-4.35-7.19,8.8-11,13-10.77,11.87-13.1,9.76-19,18-2.84,3.97-1.69,3.61-9,17-2.22,4.07-4.71,8.62-8,14-9.07,14.81-10.71,13.75-18,26-4.37,7.33-5.91,11.3-8,11-3.53-.51-4.87-12.71-5-14-.94-9.08,1.3-13.59-2-17-1.56-1.61-4.17-2.78-6-2-2.81,1.2-2.95,6.61-3,10-.35,22.92,1,36,1,36s1.42,13.78-3,23c-.23.48-.88,1.84-2,2-1.42.21-2.75-1.65-3-2-2.16-3.03-1.34-7.19-1-9,2.3-12.07,2.87-21.75,2-22-.49-.14-1.18,2.76-3,3-1.75.23-3.41-2.14-4-3-3.86-5.63-3.99-14.23-4-20-.04-14.79.67-20.57-3-23-.37-.25-2.36-1.68-4-1-4.39,1.81-.77,16.41-5,18-1.76.66-3-1.63-5-1-4.19,1.31-4.04,13.04-4,15,.26,11.91,4.56,17.95,2,20-1.75,1.41-5.68.11-8-2-3.37-3.07-2.62-7.2-4-17-1.04-7.4-1.56-11.1-3-14-3.36-6.77-7.43-6-17-15-9.12-8.57-8.2-11.87-14-14-7.88-2.9-11.31,2.57-18-1-5.5-2.93-10.35-10.44-12-13-.89-1.38-2.61-4.19-6-6-.78-.41-4.35-2.31-6-1-2.17,1.73.23,7.99,1,10,2.98,7.76,8.11,12.91,8,13-.11.09-4.06-5.96-11-10-4.15-2.42-9.96-4.46-11-3-1.18,1.65,4.82,6.27,11,17,3.47,6.03,7.1,12.32,5,15-2.44,3.11-9.35-2.86-20-1-10.42,1.82-17.07,9.86-19,8-1.44-1.39,2.27-5.88,0-9-.99-1.37-2.21-1.2-5-4-1.44-1.45-1.84-2.23-2-3-.33-1.64.52-2.9,1-4,1.06-2.42.44-4.32-1-11-.72-3.32-1.18-6.7-2-10-3-12.14-2.71-15.45-7-35-2.18-9.95-3.28-14.93-4-17-4.68-13.39-10.15-17.81-11-29-.36-4.77.63-4.03,1-12,.38-8.02-.4-13.72-4-35-3.17-18.73-4.38-24.66-1-27,2.07-1.43,3.65,0,11,0,10.55,0,12.16-2.97,20-2,2.33.29,8.15,1,13,5,5.52,4.55,6.82,10.91,8,15,2.49,8.65,7.99,15.76,19,30,9.77,12.63,21.31,18.93,44,31,23.34,12.42,43.28,19.5,54,23,16.81,5.48,40.15,13.09,71,15,16.31,1.01,44,1,44,1Z"/>
  <path class="cls-1" d="M1263.5,566.5c5.03-2.6,7.32-4.03,9-3,2.04,1.25,2.53,5.71,1,9-1.55,3.35-4.68,4.4-20,10-7.6,2.78-11.43,4.23-13,7-2.01,3.54-.32,5.84-3,10-2.67,4.14-6.32,4.94-6,7,.38,2.48,5.92,2.78,6,5,.07,1.84-3.68,2.4-4,5-.26,2.15,2.16,3.14,2,5-.24,2.9-6.46,4.61-8,5-12.77,3.27-18.61-3.2-26,1-4.29,2.44-4.36,5.77-8,6-4.21.26-5.59-4.1-11-5-5.53-.92-11.2,2.46-11,4,.32,2.51,16.27-.07,18,5,.98,2.86-2.82,7.45-7,9-4.42,1.64-8.65-.36-10-1,0,0-1.17-.55-7-5h0s-2.32-2.15-4-3c-2.18-1.1-4.65-.68-7,0-9.24,2.66-17.38,9.43-28,12-2.18.53-11.37,2.75-14-1-1.61-2.29.93-4.42,0-9-1.28-6.34-6.96-6.3-9-13-1.49-4.88,1.05-6.48-1-11-1.17-2.58-4.1-6.71-8-7-5.52-.42-8.51,7.18-12,6-2.26-.76-3.52-4.79-3-8,1.02-6.29,8.79-8.93,8-11-.83-2.19-9.48.77-12-3-1.21-1.81-.47-4.38,0-6,0,0,1.23-4.26,5-7,8.21-5.97,23.7.96,24,0,.25-.8-10.93-3.74-11-8-.04-2.49,3.75-3.1,4-6,.36-4.08-6.94-5.14-9-11-2.31-6.58,4.13-13.11,2-15-2.3-2.04-10.23,5.25-13,3-2.29-1.85,2.33-7.41,0-12-2.58-5.07-10.13-2.06-21-8-2.17-1.19-12.04-6.58-12-14,0-.57.02-3.94,2-5,3.08-1.65,7.24,4.23,17,9,3.56,1.74,13.31,6.5,17,3,2.69-2.55,1.13-8.51,1-9-1.15-4.23-4.19-6.83-4-7,.27-.25,4.3,7.13,10,8,9.18,1.4,16.5-15.05,22-13,4.4,1.64,1.92,13.03,7,15,4.75,1.84,11.91-6.17,13-5,.6.65-2.01,2.67-3,7-1.06,4.63.78,7.39-1,9-1.63,1.47-3.83-.22-5,1-2.35,2.47,5.63,10.37,3,16-1.44,3.07-4.67,2.54-6,6-1.18,3.07-.32,7.86,2,9,6.6,3.25,20.93-25.07,33-22,7.06,1.79,6.98,12.71,13,13,6.52.32,14.92-12.08,17-24,1.35-7.72-.39-12.8,3-15,3.13-2.02,8.13.01,13,2,4.69,1.91,7.74,3.15,10,6,6.16,7.75-.36,18.8,4,22,3.79,2.79,12.34-2.91,14-4,29.67-19.44,81.14-22.62,82-20,.39,1.2-8.89,6.17-18,9-8.3,2.58-11.11,1.72-17,5-6.66,3.71-10.53,8.96-12,11-5.52,7.65-3.32,10.37-9,17-3.84,4.47-7.67,6.52-7,9,.7,2.59,5.46,2.42,6,5,.64,3.06-5.42,6.33-5,7,.44.71,7.68-2.19,17-7Z"/>
  <path class="cls-1" d="M1295.5,540.5c3.09,4.07-2.86,19.2-12.5,19-6.07-.13-12.12-6.32-11.5-11,1.03-7.74,20.44-12.69,24-8Z"/>
  <path class="cls-1" d="M1279.5,590.5c.47,5.62-5.77,10.09-11,11-6.52,1.13-14.27-2.81-15-8-.82-5.86,7.39-12.69,15-12,4.69.42,10.57,3.83,11,9Z"/>
  <path class="cls-1" d="M1234.5,638.5c-.31,3.08-4.48,6.33-9,6-4.13-.3-7.16-3.49-8-7-.62-2.6-.31-6.49,2-8,4.47-2.94,15.54,3.63,15,9Z"/>
  <path class="cls-1" d="M1214.5,577.5c3.34,6.67,4.1,16.03,1,18-3.81,2.42-10.56-8.15-18-6-6.74,1.94-8.17,12.62-11,12-2.29-.5-2.93-7.81-3-11-.14-6.15,1.53-8.26,0-10-2.62-2.98-9.38,1.04-12-2-1.52-1.76-.91-5.02,0-7,1.69-3.67,5.64-5.55,25-9,16.75-2.99,21.17-2.9,24,0,1.69,1.73,2.92,4.59,2,6-1.78,2.72-10.55-1.42-12,1-.87,1.46,1.87,3.73,4,8Z"/>
  <path class="cls-1" d="M1168.5,589.5c3.52,2.12,11.92,7.19,11,10-.61,1.85-4.98,1.95-8,2-8.6.13-12.78-2.2-25-6-11.34-3.53-16.2-4.15-19-9-.55-.95-1.87-3.24-1-5,1.89-3.8,12.51-1.95,18-1,5.27.92,14.12,3.05,24,9Z"/>
  <path class="cls-1" d="M1133.5,611.5c1.29,6.95.98,17.77-3,19-4.67,1.45-13.75-10.51-15-21-.55-4.62.55-7.83,1-9,.69-1.78,2.58-6.65,5.5-7,4.37-.52,9.87,9.21,11.5,18Z"/>
</svg>