<?xml version="1.0" encoding="UTF-8"?>
<svg id="Layer_1" data-name="Layer 1" xmlns="http://www.w3.org/2000/svg" viewBox="0 0 235.06 222.26">
  <defs>
    <style>
      .cls-1 {
        fill: #9c6849;
      }

      .cls-1, .cls-2, .cls-3, .cls-4, .cls-5, .cls-6, .cls-7, .cls-8, .cls-9, .cls-10 {
        stroke-width: 0px;
      }

      .cls-2 {
        fill: #006838;
      }

      .cls-3 {
        fill: none;
      }

      .cls-11 {
        font-family: Krungthep, Krungthep;
        font-size: 28.06px;
      }

      .cls-11, .cls-4 {
        fill: #ed1c24;
      }

      .cls-5 {
        fill: #231f20;
      }

      .cls-6 {
        fill: #252164;
      }

      .cls-7 {
        fill: #e6e7e8;
      }

      .cls-8 {
        fill: #414042;
      }

      .cls-9 {
        fill: #f9a675;
      }

      .cls-10 {
        fill: #00aeef;
      }
    </style>
  </defs>
  <path id="Sky" class="cls-4" d="M213.59,152.68c-2.6,18.32-52.95,29.07-95.77,28.99-33.95-.06-81.13-.15-95.77-28.99-8.11-15.96-6.3-40.85,6.18-51.81,11.44-10.05,26.12-3.36,33.27-14.26,6.07-9.26-2.6-17,2.38-32.79,2.93-9.28,10.56-21.33,21.86-25.19,14.97-5.11,21.5,9.26,48,14.73,29.37,6.07,41.3-7.45,57.99,3.8,8.2,5.53,17.16,16.78,17.11,28.99-.06,15.25-14.12,22.17-10.93,36.12,1.29,5.63,3.71,5.1,8.56,15.21,1.17,2.44,8.26,17.24,7.13,25.19Z"/>
  <path class="cls-9" d="M129.66,106.79c-.8,2.41-4.24,4.02-7.21,3.91-2.61-.1-4.4-1.5-5.42-2.3-1.19-.94-2.75-2.16-2.94-3.99-.16-1.46.72-1.74.93-3.89.23-2.37-.67-3.68-.14-4.04.71-.49,2.07,2.03,4.19,2.12,3.72.16,7.12-6.47,7.8-6.03.08.05.05.16.05.71,0,0,0,.63.15,2.69.05.69.2,1.67.64,2.87,0,0,.1.58,2.15,3.88,0,0,.3,2.55-.2,4.06Z"/>
  <path class="cls-9" d="M135.15,83.88c-.54,1.71-2.03,4.74-3.5,4.57-1.56-.18-2.65-3.9-2.1-6.77.16-.85.41-2.07,1.49-2.83,1.16-.82,2.97-.89,3.96,0,1.37,1.22.57,3.7.15,5.03Z"/>
  <path class="cls-9" d="M130.41,83.05c1.39,7.25-4.51,16.69-11.41,16.87-6.48.18-10.9-8.43-12.36-12.83-2.19-6.6-2.12-16.64,2.85-19.01,5.1-2.44,12.76,4.42,14.73,6.18,2.66,2.38,5.42,4.85,6.18,8.79Z"/>
  <path class="cls-1" d="M137.23,77.36c-.62,1.96-.94,2.96-1.84,3.69-3.05,2.45-10.84.24-14.3-4.61-1.65-2.32-1.49-4.09-3.69-5.53-1.52-1-4.09-1.8-6.23-.92-4.76,1.95-3.83,10.82-6.23,11.07-1.73.18-4.06-4.26-4.41-8.37-.4-4.75,1.72-10.46,6.49-13.07,3.24-1.77,6.57-1.49,7.61-1.38,1.02.1,2.04.32,5.76,1.84,3.76,1.54,6.34,2.6,9.91,4.61,4.44,2.5,6.68,3.8,7.38,5.76.91,2.58-.01,5.5-.46,6.92Z"/>
  <ellipse class="cls-3" cx="131.93" cy="137.38" rx="38.27" ry="26.67"/>
  <path class="cls-2" d="M89.04,126.7c1.43-1.91,10.91-14.7,16.14-20.75.42-.48,1.56-1.77,3.46-2.54.67-.27,3.07-1.23,5.01-.26,2.11,1.05,1.41,3.25,3.38,5.25,2.29,2.33,6.87,3.09,9.43,1.37,2.98-2,1.47-6.21,4.08-7.74,1.99-1.17,4.98.02,9.45,2.77,7.26,4.46,10.89,6.69,15.91,12.91,9.84,12.21,19.44,32.16,14.99,35.74-2.97,2.39-12.27-2.43-17.75-8.07-4.57-4.7-6.41-9.9-7.84-9.45-1.58.49,1.77,7.38-1.38,11.53-3.35,4.4-9.61-.02-23.37,3.69-2.64.71-6.34,1.93-12.13,2.77-7.39,1.07-9.07.19-9.91-.69-2.65-2.78-.05-8.87-1.15-9.22-1.1-.36-2.66,5.96-8.03,8.11-.91.36-3.02,1.21-4.93.38-3.82-1.66-4.54-9.06-3.19-14.35.98-3.82,2.43-4.19,7.85-11.43Z"/>
  <path class="cls-2" d="M138.95,159.28s4.6-.59,9.71-.57c7.61.02,10.35,1.61,15.62.24,1.17-.3,2.95-.88,4.72-2.3,1.37-1.11,3.22-2.59,3.09-4.06-.29-3.48-11.64-6.25-21.98-5.8-1.13.05-1.35.1-6.19.66-14.22,1.66-23.38,2.54-23.37,3.69,0,.85,5.11.42,7.14,3.79,1.14,1.9.19,3.13,1.34,4.35,1.58,1.67,4.64.68,9.93,0Z"/>
  <path class="cls-9" d="M101.82,160.22c.52,1.32,4.42,1.23,6.94.69,3.4-.72,3.79-2.16,6.47-2.24,2.45-.07,2.77,1.11,6.09,1.7.68.12,6.53,1.1,7.7-1.09.99-1.86-1.5-5.73-4.69-7.23-2.04-.96-3.94-.74-7.71-.31-2.21.25-4.35.5-6.86,1.54-4.17,1.73-8.56,5.34-7.94,6.94Z"/>
  <path class="cls-8" d="M102.87,153.47c-7.15-.26-14.3-.51-21.46-.77,1.18,2.94,2.36,5.89,3.55,8.83,8.4-.54,13.43-2.17,16.23-3.36,3.45-1.47,3.86-2.43,3.79-2.95-.17-1.14-2.01-1.73-2.1-1.76Z"/>
  <path class="cls-6" d="M89.87,161.05c-3.1.23-6.21.46-9.31.69-2.59-14.58-5.18-29.17-7.78-43.75,2.87-.28,5.75-.56,8.62-.84,2.82,14.63,5.64,29.27,8.46,43.9Z"/>
  <path class="cls-6" d="M27.08,117.36c18.11-.07,36.22-.14,54.33-.21l-2.73.84c-17.04,1.9-34.08,3.81-51.12,5.71-.16-2.11-.32-4.22-.47-6.34Z"/>
  <path class="cls-5" d="M87.93,161.74c-18.19-1.3-36.38-2.6-54.57-3.91-2.54-12.08-3.63-18.87-4.12-22.18-.25-1.72-1.24-8.65-2.31-16.61,0,0,0,0,0,0,0,0,2.44-.07,6.96-.21,14.93-.28,29.86-.56,44.79-.84,3.09,14.58,6.17,29.17,9.26,43.75Z"/>
  <path class="cls-10" d="M196.11,150.94c.18,1.91-.49,4.36-2.23,5.46-2.15,1.35-4.92,0-5.46,1.12-.37.76.79,1.64.37,2.36-.34.59-1.35.4-3.85.37-1.87-.02-3.58.05-5.21.12-2.97.13-3.22.32-3.72,0-1.45-.93-.85-3.55-.73-7.65.24-8.09-1.74-10.98.23-12.57.44-.36.68-.33,5.83-.37,5.57-.05,6.89-.1,7.57.87.92,1.32-.55,2.84.5,4.22.95,1.26,2.49.41,4.34,1.74,2.04,1.47,2.33,4.07,2.36,4.34Z"/>
  <path class="cls-4" d="M193.38,151.37c.1.93.24,2.21-.62,3.16-.81.89-2.36,1.34-3.22.74-.6-.41-.61-1.58-.62-3.91,0-3.36.47-3.77.74-3.91.55-.28,1.27.03,1.49.12.67.29,1.01.81,1.36,1.36.71,1.12.84,2.2.87,2.42Z"/>
  <path class="cls-7" d="M182.74,135.48c.35,1.57.94,2.62.46,3.06-.14.13-.3.09-1.63-.01-1.48-.12-1.59-.1-1.73-.24-.54-.51.21-1.44.1-3.18-.1-1.59-.79-1.62-.74-2.9.04-1.19.64-1.32,1.41-3.36.69-1.84.66-2.94.96-2.95.41-.01.83,2.01,1.01,3.45.42,3.22-.39,3.65.15,6.12Z"/>
  <text class="cls-11" transform="translate(27.08 207.52) scale(.57 1)"><tspan x="0" y="0">Passion for software</tspan></text>
</svg>